<svg width="44" height="41" viewBox="0 0 44 41" fill="none" xmlns="http://www.w3.org/2000/svg">
<path fill-rule="evenodd" clip-rule="evenodd" d="M15.2352 4.6507C13.2102 5.31138 11.3482 6.31236 9.77923 7.60822C6.76923 10.0961 5.07692 13.4686 5.07692 16.9867V22.4631C3.82529 22.6215 2.65743 23.1038 1.75182 23.8536C0.630216 24.78 0 26.0358 0 27.3462V36.8067C0 37.3218 0.504607 37.7386 1.12821 37.7386H5.10118C5.20695 38.5648 5.64986 39.3402 6.36821 39.9335C7.19451 40.6159 8.31611 41 9.48397 41H34.516C35.6839 41 36.8055 40.616 37.6318 39.9335C38.3501 39.3402 38.7931 38.5648 38.8988 37.7386H42.8718C43.4954 37.7386 44 37.3218 44 36.8067V27.3029C44 24.8295 41.7965 22.7784 38.9231 22.42V16.9893C38.9231 13.4712 37.2308 10.0988 34.2208 7.61078C32.6519 6.31497 30.7899 5.31394 28.7648 4.65326V4.35114C28.7648 3.02434 27.8195 1.82316 26.352 1.28264C25.4772 0.9605 24.4394 0.57831 23.6549 0.290744C22.6016 -0.0969148 21.3985 -0.0969148 20.3452 0.290744L17.6481 1.28264C16.1805 1.82134 15.2353 3.02439 15.2353 4.35114V4.65326L15.2352 4.6507ZM34.972 26.5527C34.972 23.7116 33.6058 20.9854 31.1731 18.9759C28.7404 16.9664 25.4396 15.8382 21.9997 15.8382H21.9975C18.5577 15.8382 15.257 16.9666 12.824 18.9759C10.391 20.9852 9.02513 23.7115 9.02513 26.5527V35.8711C9.02513 36.3861 9.52974 36.8029 10.1533 36.8029H33.8456C34.4693 36.8029 34.9739 36.3861 34.9739 35.8711V26.5527H34.972ZM38.9207 24.3159C40.5403 24.6489 41.7412 25.8592 41.7412 27.2988V35.8708H38.9207V24.3137V24.3159ZM5.07455 24.3614V35.8729H2.25404V27.3442C2.25404 26.5288 2.64627 25.7462 3.34479 25.1693C3.82516 24.7725 4.42454 24.4943 5.07455 24.3614ZM32.6563 25.6226H11.3395C11.5951 23.617 12.677 21.7333 14.42 20.2934C16.4296 18.6336 19.1553 17.7017 21.9981 17.7017H22.0003C24.8429 17.7017 27.5687 18.6336 29.5785 20.2934C31.3215 21.733 32.4012 23.6167 32.659 25.6226H32.6563ZM26.471 4.06311C26.3608 3.58992 25.9752 3.18224 25.4309 2.98204L22.7338 1.99014C22.2644 1.81724 21.729 1.81724 21.2596 1.99014L18.5625 2.98204C18.0161 3.18405 17.6327 3.58992 17.5224 4.06311C18.6969 3.83925 19.9067 3.72459 21.1296 3.72459H22.8616C24.0845 3.72459 25.2942 3.84107 26.4687 4.06311H26.471Z" fill="url(#paint0_linear_67_1083)"/>
<defs>
<linearGradient id="paint0_linear_67_1083" x1="-10.8393" y1="1.18446" x2="-1055.09" y2="3551.76" gradientUnits="userSpaceOnUse">
<stop offset="0.112" stop-color="#141E30"/>
<stop offset="0.911" stop-color="#243B55"/>
</linearGradient>
</defs>
</svg>
